<svg id="visual" viewBox="0 0 960 540" width="960" height="540" xmlns="http://www.w3.org/2000/svg" xmlns:xlink="http://www.w3.org/1999/xlink" version="1.1"><rect x="0" y="0" width="960" height="540" fill="#F8F8F8"></rect><g transform="translate(949.9424447798713 -20.141795733382807)"><path d="M186.8 -224.5C251 -210.5 318.1 -167.8 339.4 -108.7C360.8 -49.6 336.4 25.9 292 74C247.6 122.2 183.3 143 131.3 176.8C79.4 210.6 39.7 257.3 -7.9 268.1C-55.4 279 -110.9 254 -173.8 223.7C-236.8 193.5 -307.2 158.1 -323.3 105.7C-339.5 53.3 -301.5 -16.2 -266.8 -75.5C-232.1 -134.7 -200.7 -183.9 -156.8 -204.4C-112.9 -225 -56.4 -217 2.4 -220.4C61.3 -223.7 122.7 -238.5 186.8 -224.5" fill="#6aa419"></path></g></svg>