<svg id="visual" viewBox="0 0 960 540" width="960" height="540" xmlns="http://www.w3.org/2000/svg" xmlns:xlink="http://www.w3.org/1999/xlink" version="1.1"><rect x="0" y="0" width="960" height="540" fill="#f8f8f8"></rect><path d="M0 130L32 122.5C64 115 128 100 192 104.5C256 109 320 133 384 132.5C448 132 512 107 576 98.7C640 90.3 704 98.7 768 105C832 111.3 896 115.7 928 117.8L960 120L960 0L928 0C896 0 832 0 768 0C704 0 640 0 576 0C512 0 448 0 384 0C320 0 256 0 192 0C128 0 64 0 32 0L0 0Z" fill="#6aa419" stroke-linecap="round" stroke-linejoin="miter"></path></svg>