<svg id="visual" viewBox="0 0 960 540" width="960" height="540" xmlns="http://www.w3.org/2000/svg" xmlns:xlink="http://www.w3.org/1999/xlink" version="1.1"><rect x="0" y="0" width="960" height="540" fill="#f8f8f8"></rect><path d="M0 80L32 75.7C64 71.3 128 62.7 192 60.3C256 58 320 62 384 67.3C448 72.7 512 79.3 576 85.7C640 92 704 98 768 94.3C832 90.7 896 77.3 928 70.7L960 64L960 0L928 0C896 0 832 0 768 0C704 0 640 0 576 0C512 0 448 0 384 0C320 0 256 0 192 0C128 0 64 0 32 0L0 0Z" fill="#6aa419" stroke-linecap="round" stroke-linejoin="miter"></path></svg>