<svg id="visual" viewBox="0 0 900 600" width="900" height="600" xmlns="http://www.w3.org/2000/svg" xmlns:xlink="http://www.w3.org/1999/xlink" version="1.1"><rect x="0" y="0" width="900" height="600" fill="#f8f8f8"></rect><path d="M0 88L30 83.3C60 78.7 120 69.3 180 67C240 64.7 300 69.3 360 75.3C420 81.3 480 88.7 540 95.7C600 102.7 660 109.3 720 105.3C780 101.3 840 86.7 870 79.3L900 72L900 0L870 0C840 0 780 0 720 0C660 0 600 0 540 0C480 0 420 0 360 0C300 0 240 0 180 0C120 0 60 0 30 0L0 0Z" fill="#6aa419" stroke-linecap="round" stroke-linejoin="miter"></path></svg>