<svg id="visual" viewBox="0 0 960 540" width="960" height="540" xmlns="http://www.w3.org/2000/svg" xmlns:xlink="http://www.w3.org/1999/xlink" version="1.1"><rect x="0" y="0" width="960" height="540" fill="#F8F8F8"></rect><defs><linearGradient id="grad1_0" x1="43.8%" y1="100%" x2="100%" y2="0%"><stop offset="14.444444444444446%" stop-color="#6aa419" stop-opacity="1"></stop><stop offset="85.55555555555554%" stop-color="#6aa419" stop-opacity="1"></stop></linearGradient></defs><defs><linearGradient id="grad1_1" x1="43.8%" y1="100%" x2="100%" y2="0%"><stop offset="14.444444444444446%" stop-color="#6aa419" stop-opacity="1"></stop><stop offset="85.55555555555554%" stop-color="#f8f8f8" stop-opacity="1"></stop></linearGradient></defs><defs><linearGradient id="grad2_0" x1="0%" y1="100%" x2="56.3%" y2="0%"><stop offset="14.444444444444446%" stop-color="#6aa419" stop-opacity="1"></stop><stop offset="85.55555555555554%" stop-color="#6aa419" stop-opacity="1"></stop></linearGradient></defs><defs><linearGradient id="grad2_1" x1="0%" y1="100%" x2="56.3%" y2="0%"><stop offset="14.444444444444446%" stop-color="#f8f8f8" stop-opacity="1"></stop><stop offset="85.55555555555554%" stop-color="#6aa419" stop-opacity="1"></stop></linearGradient></defs><g transform="translate(960, 540)"><path d="M-270 0C-267 -35.8 -264 -71.5 -249.4 -103.3C-234.9 -135.1 -208.8 -162.9 -180.3 -180.3C-151.8 -197.7 -120.8 -204.8 -90.3 -218C-59.8 -231.3 -29.9 -250.6 0 -270L0 0Z" fill="#b4ce8d"></path><path d="M-135 0C-133.5 -17.9 -132 -35.8 -124.7 -51.7C-117.5 -67.6 -104.4 -81.4 -90.2 -90.2C-75.9 -98.9 -60.4 -102.4 -45.2 -109C-29.9 -115.6 -15 -125.3 0 -135L0 0Z" fill="#6aa419"></path></g><g transform="translate(0, 0)"><path d="M270 0C258.9 36.2 247.9 72.4 224.5 93C201.1 113.6 165.4 118.5 146.4 146.4C127.3 174.2 124.9 225 103.3 249.4C81.7 273.9 40.9 271.9 0 270L0 0Z" fill="#b4ce8d"></path><path d="M135 0C129.5 18.1 123.9 36.2 112.3 46.5C100.6 56.8 82.7 59.3 73.2 73.2C63.7 87.1 62.5 112.5 51.7 124.7C40.9 136.9 20.4 136 0 135L0 0Z" fill="#6aa419"></path></g></svg>