<svg id="visual" viewBox="0 0 960 540" width="960" height="540" xmlns="http://www.w3.org/2000/svg" xmlns:xlink="http://www.w3.org/1999/xlink" version="1.1"><rect x="0" y="0" width="960" height="540" fill="#F8F8F8"></rect><defs><linearGradient id="grad1_0" x1="43.8%" y1="0%" x2="100%" y2="100%"><stop offset="14.444444444444446%" stop-color="#f8f8f8" stop-opacity="1"></stop><stop offset="85.55555555555554%" stop-color="#f8f8f8" stop-opacity="1"></stop></linearGradient></defs><defs><linearGradient id="grad2_0" x1="0%" y1="0%" x2="56.3%" y2="100%"><stop offset="14.444444444444446%" stop-color="#f8f8f8" stop-opacity="1"></stop><stop offset="85.55555555555554%" stop-color="#f8f8f8" stop-opacity="1"></stop></linearGradient></defs><g transform="translate(960, 0)"><path d="M0 324C-38.1 325.4 -76.2 326.8 -98.3 302.4C-120.3 278.1 -126.4 228.1 -149.9 206.3C-173.4 184.5 -214.3 191 -245.1 178.1C-276 165.2 -296.7 133 -308.1 100.1C-319.6 67.2 -321.8 33.6 -324 0L0 0Z" fill="#6aa419"></path></g><g transform="translate(0, 540)"><path d="M0 -324C30.6 -314.1 61.3 -304.1 96.7 -297.7C132.2 -291.2 172.5 -288.2 190.4 -262.1C208.4 -236 204.1 -186.7 213.6 -155.2C223.1 -123.6 246.5 -109.7 267.2 -86.8C288 -63.9 306 -32 324 0L0 0Z" fill="#6aa419"></path></g></svg>